<svg xmlns="http://www.w3.org/2000/svg" viewBox="0 0 1600 1000"><rect width="1600" height="1000" fill="#F3F3F0" /><rect x="100" y="260" width="600" height="400" rx="70" fill="#141414" /><polygon points="200,650 200,780 340,650" fill="#141414" /><circle cx="400" cy="460" r="95" fill="#F3F3F0" /><rect x="380" y="340" width="40" height="240" fill="#F3F3F0" /><rect x="280" y="440" width="240" height="40" fill="#F3F3F0" /><g transform="rotate(45 400 460)"><rect x="380" y="340" width="40" height="240" fill="#F3F3F0" /><rect x="280" y="440" width="240" height="40" fill="#F3F3F0" /></g><circle cx="400" cy="460" r="65" fill="#141414" /><circle cx="400" cy="460" r="28" fill="#F3F3F0" /><line x1="740" y1="460" x2="840" y2="460" stroke="#C4122F" stroke-width="30" /><polygon points="830,400 830,520 910,460" fill="#C4122F" /><rect x="960" y="220" width="560" height="580" rx="90" fill="#141414" /><rect x="1010" y="560" width="90" height="180" fill="#F3F3F0" /><rect x="1120" y="430" width="100" height="310" fill="#F3F3F0" /><rect x="1240" y="520" width="80" height="220" fill="#F3F3F0" /><rect x="1340" y="360" width="120" height="380" fill="#F3F3F0" /><rect x="1010" y="740" width="450" height="14" fill="#F3F3F0" /></svg>