<svg xmlns="http://www.w3.org/2000/svg" viewBox="0 0 1600 1000"><rect width="1600" height="1000" fill="#F3F3F0" /><rect x="260" y="360" width="280" height="280" rx="20" fill="#141414" /><rect x="330" y="430" width="140" height="140" rx="10" fill="#F3F3F0" /><rect x="292" y="300" width="36" height="60" fill="#141414" /><rect x="382" y="300" width="36" height="60" fill="#141414" /><rect x="472" y="300" width="36" height="60" fill="#141414" /><rect x="292" y="640" width="36" height="60" fill="#141414" /><rect x="382" y="640" width="36" height="60" fill="#141414" /><rect x="472" y="640" width="36" height="60" fill="#141414" /><rect x="200" y="402" width="60" height="36" fill="#141414" /><rect x="200" y="482" width="60" height="36" fill="#141414" /><rect x="200" y="562" width="60" height="36" fill="#141414" /><rect x="540" y="402" width="60" height="36" fill="#141414" /><rect x="540" y="482" width="60" height="36" fill="#141414" /><rect x="540" y="562" width="60" height="36" fill="#141414" /><rect x="950" y="280" width="500" height="380" rx="70" fill="#141414" /><polygon points="1050,650 1050,790 1180,650" fill="#141414" /><circle cx="1090" cy="470" r="36" fill="#F3F3F0" /><circle cx="1200" cy="470" r="36" fill="#F3F3F0" /><circle cx="1310" cy="470" r="36" fill="#F3F3F0" /><line x1="740" y1="500" x2="900" y2="500" stroke="#C4122F" stroke-width="30" /><polygon points="650,500 745,430 745,570" fill="#C4122F" /></svg>