<svg xmlns="http://www.w3.org/2000/svg" viewBox="0 0 1600 1000"><rect x="0" y="0" width="1600" height="1000" fill="#F3F3F0" /><rect x="340" y="230" width="220" height="340" rx="110" fill="#141414" /><rect x="340" y="340" width="220" height="16" fill="#F3F3F0" /><rect x="340" y="410" width="220" height="16" fill="#F3F3F0" /><path d="M270 450 Q270 670 450 670 Q630 670 630 450" fill="none" stroke="#141414" stroke-width="30" /><rect x="436" y="670" width="28" height="110" fill="#141414" /><rect x="330" y="780" width="240" height="40" rx="12" fill="#141414" /><rect x="700" y="486" width="120" height="48" fill="#C4122F" /><polygon points="800,440 900,510 800,580" fill="#C4122F" /><rect x="960" y="240" width="560" height="520" rx="24" fill="#F3F3F0" stroke="#141414" stroke-width="16" /><rect x="960" y="240" width="560" height="84" rx="24" fill="#141414" /><rect x="960" y="290" width="560" height="34" fill="#141414" /><rect x="1010" y="380" width="260" height="32" rx="8" fill="#141414" /><rect x="1060" y="450" width="380" height="32" rx="8" fill="#141414" /><rect x="1060" y="520" width="300" height="32" rx="8" fill="#141414" /><rect x="1060" y="590" width="340" height="32" rx="8" fill="#141414" /><rect x="1010" y="660" width="200" height="32" rx="8" fill="#141414" /></svg>