<svg xmlns="http://www.w3.org/2000/svg" viewBox="0 0 1600 1000"><rect width="1600" height="1000" fill="#F3F3F0" /><rect x="120" y="250" width="640" height="500" rx="20" fill="#141414" /><rect x="145" y="345" width="590" height="380" fill="#F3F3F0" /><circle cx="180" cy="297" r="16" fill="#F3F3F0" /><circle cx="230" cy="297" r="16" fill="#F3F3F0" /><circle cx="280" cy="297" r="16" fill="#F3F3F0" /><rect x="185" y="390" width="300" height="34" rx="8" fill="#141414" /><rect x="225" y="460" width="420" height="34" rx="8" fill="#141414" /><rect x="225" y="530" width="260" height="34" rx="8" fill="#141414" /><rect x="185" y="600" width="360" height="34" rx="8" fill="#141414" /><rect x="185" y="670" width="200" height="34" rx="8" fill="#141414" /><polygon points="800,470 900,470 900,430 980,500 900,570 900,530 800,530" fill="#141414" /><path d="M1090 490 V420 A110 110 0 0 1 1310 420 V490" fill="none" stroke="#141414" stroke-width="50" /><rect x="1010" y="480" width="380" height="300" rx="30" fill="#C4122F" /><circle cx="1200" cy="600" r="45" fill="#F3F3F0" /><rect x="1180" y="620" width="40" height="100" rx="10" fill="#F3F3F0" /></svg>