<svg xmlns="http://www.w3.org/2000/svg" viewBox="0 0 1600 1000"><rect width="1600" height="1000" fill="#F3F3F0" /><rect x="140" y="260" width="580" height="380" rx="60" fill="#141414" /><polygon points="220,620 350,620 200,760" fill="#141414" /><circle cx="430" cy="450" r="85" fill="#F3F3F0" /><rect x="320" y="432" width="220" height="36" fill="#F3F3F0" /><rect x="412" y="340" width="36" height="220" fill="#F3F3F0" /><polygon points="495.1,540.5 520.5,515.1 364.9,359.5 339.5,385.1" fill="#F3F3F0" /><polygon points="520.5,384.9 495.1,359.5 339.5,515.1 364.9,540.5" fill="#F3F3F0" /><circle cx="430" cy="450" r="38" fill="#141414" /><path d="M1010 480 V350 A110 110 0 0 1 1230 350 V410" fill="none" stroke="#C4122F" stroke-width="50" /><rect x="900" y="480" width="460" height="320" rx="30" fill="#C4122F" /><circle cx="1130" cy="610" r="38" fill="#F3F3F0" /><rect x="1116" y="620" width="28" height="90" fill="#F3F3F0" /></svg>